HIERARCHY
ROOT Hips
{
	OFFSET 0.000000 77.714516 0.000000
	CHANNELS 6 Xposition Yposition Zposition Xrotation Yrotation Zrotation 
	JOINT Spine
	{
		OFFSET 0.000000 14.685699 -1.734700
		CHANNELS 3 Xrotation Yrotation Zrotation
		JOINT Spine1
		{
			OFFSET 0.000000 12.238081 -1.445592
			CHANNELS 3 Xrotation Yrotation Zrotation
			JOINT Spine1_split
			{
				OFFSET 0.000000 12.238081 -1.445592
				CHANNELS 3 Xrotation Yrotation Zrotation
				JOINT Spine2
				{
					OFFSET 0.000000 12.238081 -1.445592
					CHANNELS 3 Xrotation Yrotation Zrotation
					JOINT Neck
					{
						OFFSET 0.000000 22.028564 -2.602067
						CHANNELS 3 Xrotation Yrotation Zrotation
						JOINT Head
						{
							OFFSET 0.000000 7.772293 1.167700
							CHANNELS 3 Xrotation Yrotation Zrotation
							JOINT HeadTop_End
							{
								OFFSET 0.000000 26.518204 3.983900
								CHANNELS 3 Xrotation Yrotation Zrotation
								End Site
								{
									OFFSET 0.000000 0.000000 0.000000
								}
							}
						}
					}
					JOINT LeftShoulder
					{
						OFFSET 5.823300 9.256668 -1.291890
						CHANNELS 3 Xrotation Yrotation Zrotation
						JOINT LeftShoulder_split
						{
							OFFSET 5.823300 9.256668 -1.291890
							CHANNELS 3 Xrotation Yrotation Zrotation
							JOINT LeftArm
							{
								OFFSET 23.544209 -6.614426 0.036475
								CHANNELS 3 Xrotation Yrotation Zrotation
								JOINT LeftForeArm
								{
									OFFSET 22.756695 0.000000 -0.000001
									CHANNELS 3 Xrotation Yrotation Zrotation
									JOINT LeftHand
									{
										OFFSET 32.238304 0.000000 -0.000001
										CHANNELS 3 Xrotation Yrotation Zrotation
										JOINT LeftHandThumb1
										{
											OFFSET 4.391930 -2.771759 4.066533
											CHANNELS 3 Xrotation Yrotation Zrotation
											JOINT LeftHandThumb2
											{
												OFFSET 4.087418 -2.359879 2.359872
												CHANNELS 3 Xrotation Yrotation Zrotation
												JOINT LeftHandThumb3
												{
													OFFSET 4.044945 -2.335342 2.335349
													CHANNELS 3 Xrotation Yrotation Zrotation
													JOINT LeftHandThumb4
													{
														OFFSET 3.242561 -1.872101 1.872095
														CHANNELS 3 Xrotation Yrotation Zrotation
														End Site
														{
															OFFSET 0.000000 0.000000 0.000000
														}
													}
												}
											}
										}
										JOINT LeftHandIndex1
										{
											OFFSET 13.080666 -0.495590 3.860911
											CHANNELS 3 Xrotation Yrotation Zrotation
											JOINT LeftHandIndex2
											{
												OFFSET 4.467804 0.000000 0.000000
												CHANNELS 3 Xrotation Yrotation Zrotation
												JOINT LeftHandIndex3
												{
													OFFSET 4.434097 0.000000 0.000000
													CHANNELS 3 Xrotation Yrotation Zrotation
													JOINT LeftHandIndex4
													{
														OFFSET 3.589699 0.000000 0.000000
														CHANNELS 3 Xrotation Yrotation Zrotation
														End Site
														{
															OFFSET 0.000000 0.000000 0.000000
														}
													}
												}
											}
										}
										JOINT LeftHandMiddle1
										{
											OFFSET 12.178093 0.000000 0.000000
											CHANNELS 3 Xrotation Yrotation Zrotation
											JOINT LeftHandMiddle2
											{
												OFFSET 5.491508 0.000000 0.000000
												CHANNELS 3 Xrotation Yrotation Zrotation
												JOINT LeftHandMiddle3
												{
													OFFSET 5.202805 0.000000 0.000000
													CHANNELS 3 Xrotation Yrotation Zrotation
													JOINT LeftHandMiddle4
													{
														OFFSET 4.456505 0.000000 0.000000
														CHANNELS 3 Xrotation Yrotation Zrotation
														End Site
														{
															OFFSET 0.000000 0.000000 0.000000
														}
													}
												}
											}
										}
										JOINT LeftHandRing1
										{
											OFFSET 11.850945 -0.053970 -3.835439
											CHANNELS 3 Xrotation Yrotation Zrotation
											JOINT LeftHandRing2
											{
												OFFSET 4.691414 0.000000 0.000000
												CHANNELS 3 Xrotation Yrotation Zrotation
												JOINT LeftHandRing3
												{
													OFFSET 4.518303 0.000000 0.000000
													CHANNELS 3 Xrotation Yrotation Zrotation
													JOINT LeftHandRing4
													{
														OFFSET 3.568130 0.000000 0.000000
														CHANNELS 3 Xrotation Yrotation Zrotation
														End Site
														{
															OFFSET 0.000000 0.000000 0.000000
														}
													}
												}
											}
										}
										JOINT LeftHandPinky1
										{
											OFFSET 10.491814 -0.458572 -7.033705
											CHANNELS 3 Xrotation Yrotation Zrotation
											JOINT LeftHandPinky2
											{
												OFFSET 4.452301 0.000000 0.000000
												CHANNELS 3 Xrotation Yrotation Zrotation
												JOINT LeftHandPinky3
												{
													OFFSET 3.536598 0.000000 0.000000
													CHANNELS 3 Xrotation Yrotation Zrotation
													JOINT LeftHandPinky4
													{
														OFFSET 2.823502 0.000000 0.000000
														CHANNELS 3 Xrotation Yrotation Zrotation
														End Site
														{
															OFFSET 0.000000 0.000000 0.000000
														}
													}
												}
											}
										}
									}
								}
							}
						}
					}
					JOINT RightShoulder
					{
						OFFSET -5.823300 9.256676 -1.310167
						CHANNELS 3 Xrotation Yrotation Zrotation
						JOINT RightShoulder_split
						{
							OFFSET -5.823300 9.256676 -1.310167
							CHANNELS 3 Xrotation Yrotation Zrotation
							JOINT RightArm
							{
								OFFSET -23.544205 -6.614441 -0.036501
								CHANNELS 3 Xrotation Yrotation Zrotation
								JOINT RightForeArm
								{
									OFFSET -22.759399 0.000000 0.000001
									CHANNELS 3 Xrotation Yrotation Zrotation
									JOINT RightHand
									{
										OFFSET -32.238106 0.000000 0.000001
										CHANNELS 3 Xrotation Yrotation Zrotation
										JOINT RightHandThumb1
										{
											OFFSET -4.492897 -2.767944 4.026622
											CHANNELS 3 Xrotation Yrotation Zrotation
											JOINT RightHandThumb2
											{
												OFFSET -4.113335 -2.374832 2.374833
												CHANNELS 3 Xrotation Yrotation Zrotation
												JOINT RightHandThumb3
												{
													OFFSET -4.066299 -2.347672 2.347677
													CHANNELS 3 Xrotation Yrotation Zrotation
													JOINT RightHandThumb4
													{
														OFFSET -3.138756 -1.812164 1.812160
														CHANNELS 3 Xrotation Yrotation Zrotation
														End Site
														{
															OFFSET 0.000000 0.000000 0.000000
														}
													}
												}
											}
										}
										JOINT RightHandIndex1
										{
											OFFSET -12.930191 -0.141510 3.700550
											CHANNELS 3 Xrotation Yrotation Zrotation
											JOINT RightHandIndex2
											{
												OFFSET -4.764015 0.000000 0.000000
												CHANNELS 3 Xrotation Yrotation Zrotation
												JOINT RightHandIndex3
												{
													OFFSET -4.419807 0.000000 0.000000
													CHANNELS 3 Xrotation Yrotation Zrotation
													JOINT RightHandIndex4
													{
														OFFSET -3.701851 0.000000 0.000000
														CHANNELS 3 Xrotation Yrotation Zrotation
														End Site
														{
															OFFSET 0.000000 0.000000 0.000000
														}
													}
												}
											}
										}
										JOINT RightHandMiddle1
										{
											OFFSET -12.168388 0.000000 0.000001
											CHANNELS 3 Xrotation Yrotation Zrotation
											JOINT RightHandMiddle2
											{
												OFFSET -5.385834 0.000000 0.000000
												CHANNELS 3 Xrotation Yrotation Zrotation
												JOINT RightHandMiddle3
												{
													OFFSET -5.321609 0.000000 0.000000
													CHANNELS 3 Xrotation Yrotation Zrotation
													JOINT RightHandMiddle4
													{
														OFFSET -4.501015 0.000000 0.000000
														CHANNELS 3 Xrotation Yrotation Zrotation
														End Site
														{
															OFFSET 0.000000 0.000000 0.000000
														}
													}
												}
											}
										}
										JOINT RightHandRing1
										{
											OFFSET -11.815239 0.302551 -3.905540
											CHANNELS 3 Xrotation Yrotation Zrotation
											JOINT RightHandRing2
											{
												OFFSET -4.583313 0.000000 0.000000
												CHANNELS 3 Xrotation Yrotation Zrotation
												JOINT RightHandRing3
												{
													OFFSET -4.612907 0.000000 0.000000
													CHANNELS 3 Xrotation Yrotation Zrotation
													JOINT RightHandRing4
													{
														OFFSET -3.358940 0.000000 0.000000
														CHANNELS 3 Xrotation Yrotation Zrotation
														End Site
														{
															OFFSET 0.000000 0.000000 0.000000
														}
													}
												}
											}
										}
										JOINT RightHandPinky1
										{
											OFFSET -10.511444 -0.263382 -6.996516
											CHANNELS 3 Xrotation Yrotation Zrotation
											JOINT RightHandPinky2
											{
												OFFSET -4.477509 0.000000 0.000000
												CHANNELS 3 Xrotation Yrotation Zrotation
												JOINT RightHandPinky3
												{
													OFFSET -3.497902 0.000000 0.000000
													CHANNELS 3 Xrotation Yrotation Zrotation
													JOINT RightHandPinky4
													{
														OFFSET -2.797302 0.000000 0.000000
														CHANNELS 3 Xrotation Yrotation Zrotation
														End Site
														{
															OFFSET 0.000000 0.000000 0.000000
														}
													}
												}
											}
										}
									}
								}
							}
						}
					}
				}
			}
		}
	}
	JOINT LeftUpLeg
	{
		OFFSET 13.580900 -8.149200 -1.796100
		CHANNELS 3 Xrotation Yrotation Zrotation
		JOINT LeftLeg
		{
			OFFSET 1.779603 -35.946629 -2.676069
			CHANNELS 3 Xrotation Yrotation Zrotation
			JOINT LeftFoot
			{
				OFFSET -1.779600 -26.652353 -2.057156
				CHANNELS 3 Xrotation Yrotation Zrotation
				JOINT LeftToeBase
				{
					OFFSET -1.192457 -6.581663 13.403625
					CHANNELS 3 Xrotation Yrotation Zrotation
					JOINT LeftToe_End
					{
						OFFSET -0.351332 -0.163919 5.937958
						CHANNELS 3 Xrotation Yrotation Zrotation
						End Site
						{
							OFFSET 0.000000 0.000000 0.000000
						}
					}
				}
			}
		}
	}
	JOINT RightUpLeg
	{
		OFFSET -13.580900 -8.149200 -2.255300
		CHANNELS 3 Xrotation Yrotation Zrotation
		JOINT RightLeg
		{
			OFFSET -1.779582 -35.946686 -2.316831
			CHANNELS 3 Xrotation Yrotation Zrotation
			JOINT RightFoot
			{
				OFFSET 1.779588 -26.652205 -2.090130
				CHANNELS 3 Xrotation Yrotation Zrotation
				JOINT RightToeBase
				{
					OFFSET 1.192391 -6.582412 13.372187
					CHANNELS 3 Xrotation Yrotation Zrotation
					JOINT RightToe_End
					{
						OFFSET 0.351304 -0.164246 5.913598
						CHANNELS 3 Xrotation Yrotation Zrotation
						End Site
						{
							OFFSET 0.000000 0.000000 0.000000
						}
					}
				}
			}
		}
	}
}
MOTION
Frames: 6
Frame Time: 0.016667
-25.631689 52.054382 20.573711 -7.228523 -0.762321 -5.641914 11.198217 -0.087602 7.911489 1.765358 -0.049069 0.730892 0.000000 0.000000 0.000000 1.767267 -0.055055 0.727112 2.321282 0.425271 1.748421 -2.851292 2.582352 -5.367819 0.000000 -0.000000 -0.000000 0.452933 -1.159391 -2.830214 0.000000 0.000000 0.000000 -13.684233 -11.862158 -73.654943 -0.000005 -57.214278 -0.000004 37.205174 -5.693389 39.465147 0.639150 6.886929 -1.316843 9.215957 26.452882 -3.274761 -2.689843 -6.358792 3.958980 -0.000002 -0.000004 0.000002 -0.548643 -0.660359 -17.764870 1.195543 3.882465 -34.219319 0.001182 -0.127799 1.059108 -0.000003 0.000003 -0.000001 0.057725 0.908866 -9.010129 0.948904 3.493195 -30.386292 0.043995 0.778851 -6.467923 -0.000001 0.000001 -0.000000 0.511482 2.985016 -13.068874 0.308950 2.043202 -17.194745 0.157013 1.464904 -12.234166 -0.000001 0.000002 -0.000003 0.115365 5.979134 -0.754496 0.390711 -1.773230 -19.785689 0.001705 0.153115 -1.268755 -0.000001 0.000000 0.000001 0.408703 -6.141905 6.698566 0.000000 0.000000 0.000000 -14.383123 21.251768 71.402012 0.000036 69.242696 -0.000041 42.483770 -11.277079 -28.176339 2.973891 -10.476303 -7.038244 18.071173 -9.076708 6.138659 -8.363894 3.326049 -4.267701 -0.000002 0.000002 0.000004 0.782326 -3.322867 35.303673 0.276172 -1.943850 16.170478 0.000539 -0.086879 0.712794 -0.000003 0.000002 -0.000004 1.771997 -5.149879 26.866448 0.160857 -1.489888 12.323004 0.078495 -1.043930 8.599371 0.000001 -0.000000 -0.000001 2.138882 -6.114158 24.912943 0.100079 -1.177801 9.712372 0.122509 -1.302162 10.749814 0.000002 0.000002 -0.000001 0.849067 -3.961958 15.717363 0.082483 -1.069998 8.815624 0.034733 -0.695536 5.717134 0.000001 -0.000000 -0.000001 -71.503106 -7.363705 11.538495 85.780885 -3.769282 2.030638 -7.581440 0.733987 -5.491636 -2.821938 -0.000001 0.000003 0.000000 -0.000000 -0.000000 -66.778876 -6.944475 -12.149452 84.597582 -1.167011 2.049097 -12.685756 -0.270245 0.335644 0.820783 0.000015 0.000002 -0.000000 0.000000 -0.000000 
-25.642466 52.052353 20.560450 -7.310000 -0.774917 -5.599799 11.173772 -0.075620 7.909644 1.765380 -0.046961 0.733137 0.000000 0.000000 0.000000 1.767297 -0.052918 0.729351 2.333220 0.426430 1.727441 -2.826920 2.560600 -5.364127 -0.000000 -0.000000 -0.000000 0.454437 -1.181527 -2.842929 0.000000 0.000000 0.000000 -13.632721 -11.863438 -73.613784 0.000052 -57.302603 0.000037 37.147097 -5.643771 39.433394 0.651860 6.905210 -1.290934 9.226883 26.480312 -3.282319 -2.685959 -6.343802 3.956600 -0.000003 -0.000001 -0.000001 -0.543854 -0.636340 -17.817525 1.194926 3.881566 -34.210109 0.001164 -0.126869 1.051365 0.000001 0.000001 -0.000002 0.058043 0.911434 -9.036800 0.949097 3.493510 -30.389366 0.044004 0.778855 -6.467923 -0.000000 0.000001 -0.000001 0.512807 2.990421 -13.070702 0.309118 2.043732 -17.199378 0.157002 1.464910 -12.234170 -0.000002 -0.000000 -0.000000 0.105521 5.937868 -0.667153 0.390795 -1.772986 -19.787666 0.001642 0.150568 -1.247693 -0.000001 -0.000000 -0.000000 0.406907 -6.141331 6.678866 0.000000 0.000000 0.000000 -14.393509 21.255890 71.432454 0.000005 69.212028 -0.000040 42.480269 -11.274407 -28.146175 2.990290 -10.497906 -7.014090 18.079487 -9.092602 6.139824 -8.367627 3.335106 -4.267683 0.000002 -0.000002 -0.000002 0.786251 -3.328423 35.303052 0.276887 -1.946357 16.191848 0.000547 -0.086845 0.712618 -0.000000 -0.000001 0.000002 1.770989 -5.148775 26.856645 0.160813 -1.489754 12.321794 0.077848 -1.044166 8.600351 0.000002 0.000002 -0.000000 2.129362 -6.098050 24.884674 0.100458 -1.180061 9.731249 0.123332 -1.302232 10.751617 0.000005 -0.000001 0.000001 0.847567 -3.957545 15.711535 0.082988 -1.073298 8.843235 0.034708 -0.695155 5.713913 0.000001 0.000002 -0.000001 -71.409170 -7.321178 11.546638 85.762287 -3.765482 2.024247 -7.572893 0.734000 -5.491927 -2.825746 -0.000000 0.000003 0.000001 0.000000 0.000000 -66.730156 -6.922856 -12.160283 84.632334 -1.169737 2.045723 -12.702951 -0.266936 0.311288 0.804878 0.000006 -0.000002 -0.000000 0.000002 0.000000 
-25.653942 52.053116 20.550034 -7.408974 -0.793135 -5.546244 11.161581 -0.065888 7.902582 1.767713 -0.045078 0.731736 0.000000 0.000000 0.000000 1.769631 -0.051049 0.727971 2.352209 0.429413 1.708422 -2.807280 2.549872 -5.351798 0.000000 -0.000000 -0.000000 0.455867 -1.206541 -2.848380 0.000000 0.000000 0.000000 -13.585599 -11.870865 -73.585371 0.000016 -57.359020 0.000019 37.091858 -5.597962 39.410103 0.675979 6.938738 -1.262559 9.239488 26.511704 -3.291090 -2.677273 -6.310218 3.951272 -0.000003 -0.000005 0.000001 -0.542637 -0.627768 -17.846103 1.201048 3.890538 -34.300288 0.001177 -0.126933 1.051849 -0.000002 0.000004 -0.000003 0.059501 0.921030 -9.063683 0.949058 3.493457 -30.388939 0.044010 0.778827 -6.467845 -0.000000 -0.000000 0.000000 0.513521 2.990973 -13.093295 0.308923 2.043092 -17.193937 0.156992 1.464918 -12.234150 -0.000005 0.000002 -0.000004 0.098951 5.906397 -0.609039 0.390615 -1.773535 -19.782994 0.001584 0.148256 -1.228523 0.000004 0.000000 0.000001 0.406334 -6.138443 6.671582 0.000000 0.000000 0.000000 -14.399289 21.274094 71.461155 0.000024 69.185868 -0.000035 42.517521 -11.294926 -28.076099 2.993993 -10.502133 -7.003340 18.079448 -9.093529 6.140624 -8.366349 3.333155 -4.267483 -0.000000 -0.000006 -0.000001 0.784189 -3.323800 35.236922 0.277838 -1.949634 16.219930 0.000550 -0.086884 0.712857 0.000000 -0.000003 0.000003 1.763974 -5.139168 26.808296 0.160828 -1.489726 12.321574 0.077317 -1.044658 8.603811 -0.000001 0.000002 0.000001 2.119444 -6.083369 24.839844 0.100711 -1.181497 9.743220 0.123400 -1.302454 10.753597 0.000001 -0.000001 0.000000 0.844015 -3.950852 15.669029 0.083957 -1.079470 8.894436 0.034604 -0.694257 5.706541 -0.000003 0.000002 -0.000002 -71.292258 -7.261074 11.552685 85.746851 -3.712924 2.016734 -7.583347 0.733440 -5.493761 -2.801777 -0.000001 0.000004 -0.000000 0.000000 0.000000 -66.664648 -6.888716 -12.169320 84.674429 -1.172206 2.036532 -12.728326 -0.264380 0.291698 0.799652 -0.000007 -0.000000 -0.000000 -0.000000 -0.000001 
-25.660013 52.058937 20.536915 -7.522998 -0.808565 -5.480197 11.181247 -0.062238 7.895262 1.769855 -0.044748 0.726873 0.000000 0.000000 0.000000 1.771768 -0.050762 0.723139 2.378119 0.433904 1.693187 -2.786092 2.552774 -5.339480 0.000000 0.000000 0.000000 0.457069 -1.227854 -2.848525 0.000000 0.000000 0.000000 -13.565701 -11.874256 -73.587816 -0.000008 -57.372838 -0.000002 37.056030 -5.571659 39.394974 0.706323 6.980449 -1.235679 9.252869 26.545011 -3.300421 -2.665532 -6.264825 3.944068 0.000001 -0.000003 -0.000001 -0.542819 -0.624823 -17.867339 1.209204 3.902441 -34.420527 0.001174 -0.127451 1.056170 -0.000002 0.000000 0.000001 0.061243 0.932449 -9.092519 0.948879 3.493171 -30.386125 0.044004 0.778820 -6.467782 -0.000002 0.000002 -0.000001 0.514274 2.990671 -13.125545 0.308555 2.041954 -17.183812 0.157014 1.464907 -12.234133 -0.000003 0.000000 0.000000 0.095529 5.880822 -0.580586 0.390197 -1.774629 -19.773266 0.001553 0.146370 -1.213068 -0.000000 -0.000001 0.000001 0.406482 -6.133477 6.672399 0.000000 0.000000 0.000000 -14.415753 21.308677 71.487663 0.000014 69.151717 -0.000016 42.585072 -11.322741 -27.996904 2.991356 -10.497178 -6.997883 18.074605 -9.085419 6.140869 -8.361597 3.323015 -4.267214 -0.000003 -0.000007 -0.000001 0.779218 -3.313788 35.121926 0.278937 -1.953354 16.251737 0.000538 -0.086887 0.712871 -0.000000 -0.000002 0.000003 1.753090 -5.123580 26.740717 0.160962 -1.490376 12.327233 0.076985 -1.045312 8.608602 -0.000004 -0.000001 0.000000 2.108093 -6.066610 24.787163 0.100917 -1.182808 9.754036 0.123201 -1.302711 10.755188 -0.000002 0.000004 -0.000005 0.838263 -3.939756 15.601067 0.085114 -1.086856 8.955771 0.034487 -0.693104 5.697019 -0.000002 0.000001 -0.000002 -71.149589 -7.187340 11.540396 85.719052 -3.654706 2.009641 -7.594376 0.732765 -5.494314 -2.776201 0.000001 0.000002 0.000000 -0.000000 0.000000 -66.584202 -6.851746 -12.196756 84.707753 -1.159701 2.021138 -12.745095 -0.261587 0.270868 0.796605 0.000005 -0.000003 -0.000000 -0.000000 -0.000001 
-25.662060 52.068306 20.522104 -7.642018 -0.817461 -5.408191 11.220750 -0.064560 7.876989 1.771029 -0.045663 0.722086 0.000000 0.000000 0.000000 1.772929 -0.051691 0.718366 2.407151 0.439489 1.680960 -2.755867 2.567971 -5.338434 -0.000000 -0.000000 -0.000000 0.457974 -1.242959 -2.853451 0.000000 0.000000 0.000000 -13.565950 -11.879054 -73.610772 -0.000003 -57.362750 -0.000010 37.037971 -5.550464 39.381204 0.742696 7.030102 -1.212063 9.267270 26.580769 -3.310527 -2.650433 -6.206419 3.934760 -0.000003 -0.000007 0.000001 -0.543730 -0.624641 -17.886150 1.214854 3.910627 -34.503203 0.001185 -0.128391 1.063898 0.000001 -0.000000 0.000000 0.063079 0.944525 -9.125410 0.948577 3.492618 -30.380842 0.044002 0.778831 -6.467717 -0.000002 0.000000 -0.000002 0.515078 2.989508 -13.166697 0.308101 2.040470 -17.171014 0.157008 1.464908 -12.234130 0.000001 0.000001 -0.000001 0.095976 5.861498 -0.589457 0.389627 -1.776248 -19.759073 0.001504 0.145074 -1.202208 0.000000 0.000001 -0.000001 0.406499 -6.125627 6.672232 0.000000 0.000000 0.000000 -14.446965 21.361690 71.522381 0.000019 69.082999 -0.000000 42.648575 -11.327806 -27.959735 2.983443 -10.484223 -6.996491 18.063940 -9.065637 6.139889 -8.353394 3.303981 -4.266997 0.000001 -0.000006 -0.000001 0.771213 -3.297916 34.948306 0.280153 -1.957560 16.287920 0.000547 -0.086773 0.711959 -0.000000 -0.000000 0.000000 1.738570 -5.102290 26.654699 0.161360 -1.492206 12.342492 0.076726 -1.046097 8.614648 0.000000 0.000001 -0.000003 2.093755 -6.044927 24.724317 0.101148 -1.184016 9.764327 0.122919 -1.302833 10.755912 0.000003 0.000000 0.000000 0.828847 -3.920333 15.499113 0.086458 -1.095283 9.025875 0.034344 -0.691674 5.685202 0.000001 0.000002 -0.000000 -70.990821 -7.112531 11.513768 85.679621 -3.650845 2.003789 -7.593932 0.733308 -5.493279 -2.783128 0.000002 0.000002 -0.000001 0.000000 -0.000000 -66.496072 -6.814382 -12.237653 84.733701 -1.140533 2.001182 -12.755335 -0.259319 0.252770 0.787466 0.000002 -0.000004 -0.000000 0.000001 -0.000000 
-25.664345 52.079323 20.507132 -7.759532 -0.825602 -5.338568 11.261668 -0.067731 7.837063 1.772127 -0.046516 0.719826 0.000000 0.000000 0.000000 1.774013 -0.052492 0.716094 2.436298 0.446023 1.671477 -2.716912 2.594292 -5.350312 0.000000 0.000000 0.000000 0.458766 -1.252149 -2.865287 0.000000 0.000000 0.000000 -13.571663 -11.901208 -73.634698 -0.000003 -57.347081 -0.000015 37.028638 -5.513566 39.372089 0.784510 7.086941 -1.191214 9.283417 26.620811 -3.321893 -2.631907 -6.134692 3.923326 -0.000001 -0.000000 0.000004 -0.544560 -0.623578 -17.908466 1.213519 3.908709 -34.483911 0.001215 -0.129654 1.074409 -0.000003 0.000000 -0.000001 0.064833 0.956095 -9.164936 0.948117 3.491862 -30.373404 0.044007 0.778833 -6.467752 -0.000002 0.000000 0.000001 0.515608 2.986497 -13.215545 0.307646 2.038995 -17.158327 0.157007 1.464899 -12.234126 -0.000000 0.000001 0.000001 0.100002 5.847132 -0.633404 0.388943 -1.778136 -19.742375 0.001500 0.144210 -1.195129 0.000001 -0.000001 0.000001 0.406258 -6.113284 6.668176 0.000000 0.000000 0.000000 -14.492041 21.435519 71.569953 -0.000010 68.961893 0.000006 42.680793 -11.294365 -27.983551 2.972376 -10.465804 -6.997456 18.047342 -9.032991 6.137037 -8.342464 3.276996 -4.266960 0.000001 -0.000006 -0.000001 0.760159 -3.275926 34.711079 0.281576 -1.962368 16.328834 0.000544 -0.086479 0.709509 0.000002 -0.000001 0.000001 1.720432 -5.075376 26.549041 0.162037 -1.495353 12.368854 0.076374 -1.047040 8.621828 0.000000 0.000000 -0.000001 2.074745 -6.015103 24.646973 0.101283 -1.184830 9.770928 0.122752 -1.302833 10.755576 0.000006 0.000001 0.000001 0.814583 -3.888989 15.355153 0.087920 -1.104498 9.102339 0.034182 -0.690053 5.671815 0.000000 -0.000001 0.000002 -70.827737 -7.043190 11.490188 85.635976 -3.705160 1.997952 -7.580229 0.735397 -5.496106 -2.819912 -0.000002 -0.000000 0.000000 -0.000000 0.000000 -66.405100 -6.775888 -12.272043 84.755141 -1.129885 1.978073 -12.763415 -0.258196 0.241934 0.771380 -0.000004 -0.000004 -0.000000 -0.000001 -0.000000 
